<svg width="24" height="25" viewBox="0 0 24 25" fill="none" xmlns="http://www.w3.org/2000/svg">
<path d="M17 18L14.6389 15.6347M15.9474 12.4737C15.9474 13.6602 15.476 14.7981 14.6371 15.6371C13.7981 16.476 12.6602 16.9474 11.4737 16.9474C10.2872 16.9474 9.14929 16.476 8.31031 15.6371C7.47133 14.7981 7 13.6602 7 12.4737C7 11.2872 7.47133 10.1493 8.31031 9.31031C9.14929 8.47133 10.2872 8 11.4737 8C12.6602 8 13.7981 8.47133 14.6371 9.31031C15.476 10.1493 15.9474 11.2872 15.9474 12.4737V12.4737Z" stroke="#5E5F5F" stroke-width="1.5" stroke-linecap="round"/>
<path d="M18.5455 2H5.45455C4.80439 2.00278 4.18163 2.27112 3.72189 2.74657C3.26216 3.22203 3.00269 3.86608 3 4.53846V21.4615C3.00269 22.1339 3.26216 22.778 3.72189 23.2534C4.18163 23.7289 4.80439 23.9972 5.45455 24H18.5455C19.1956 23.9972 19.8184 23.7289 20.2781 23.2534C20.7378 22.778 20.9973 22.1339 21 21.4615V4.53846C20.9973 3.86608 20.7378 3.22203 20.2781 2.74657C19.8184 2.27112 19.1956 2.00278 18.5455 2ZM19.3636 21.4615C19.3636 21.686 19.2774 21.9012 19.124 22.0599C18.9706 22.2185 18.7624 22.3077 18.5455 22.3077H5.45455C5.23755 22.3077 5.02944 22.2185 4.876 22.0599C4.72256 21.9012 4.63636 21.686 4.63636 21.4615V4.53846C4.63636 4.31405 4.72256 4.09883 4.876 3.94014C5.02944 3.78146 5.23755 3.69231 5.45455 3.69231H18.5455C18.7624 3.69231 18.9706 3.78146 19.124 3.94014C19.2774 4.09883 19.3636 4.31405 19.3636 4.53846V21.4615Z" fill="#5E5F5F"/>
</svg>
