<svg width="18" height="20" viewBox="0 0 18 20" fill="none" xmlns="http://www.w3.org/2000/svg">
<path d="M18 11.6786C18 13.8856 17.0518 16.0022 15.364 17.5627C13.6761 19.1233 11.3869 20 9 20C6.61305 20 4.32387 19.1233 2.63604 17.5627C0.948211 16.0022 0 13.8856 0 11.6786C0 9.58926 0.968478 7.18331 2.87609 4.52409C2.9333 4.44503 3.00682 4.37717 3.09243 4.3244C3.17803 4.27163 3.27406 4.23499 3.375 4.21657C3.57848 4.1804 3.78918 4.21936 3.96196 4.32511L7.11196 6.26977L10.1348 0.408643C10.1888 0.303977 10.2696 0.213049 10.3702 0.143712C10.4707 0.0743738 10.588 0.0287106 10.712 0.0106656C10.835 -0.00908474 10.9613 -0.00132727 11.0805 0.03329C11.1996 0.0679073 11.308 0.128379 11.3967 0.209654C12.8348 1.53926 14.488 3.15831 15.7598 5.03966C17.2663 7.25567 18 9.42646 18 11.6786Z" fill="#262626"/>
</svg>
