<svg width="24" height="23" viewBox="0 0 24 23" fill="none" xmlns="http://www.w3.org/2000/svg">
<path d="M12 5.77273H13.8333M12 9.59091H13.8333M4.66667 13.4091H13.8333M4.66667 17.2273H13.8333M17.5 5.77273H21.625C22.384 5.77273 23 6.41418 23 7.20455V19.1364C23 19.8958 22.7103 20.6242 22.1945 21.1613C21.6788 21.6983 20.9793 22 20.25 22M17.5 5.77273V19.1364C17.5 19.8958 17.7897 20.6242 18.3055 21.1613C18.8212 21.6983 19.5207 22 20.25 22M17.5 5.77273V2.43182C17.5 1.64145 16.884 1 16.125 1H2.375C1.616 1 1 1.64145 1 2.43182V19.1364C1 19.8958 1.28973 20.6242 1.80546 21.1613C2.32118 21.6983 3.02065 22 3.75 22H20.25M4.66667 5.77273H8.33333V9.59091H4.66667V5.77273Z" stroke="#5E5F5F" stroke-width="1.5" stroke-linecap="round" stroke-linejoin="round"/>
</svg>
