<svg width="32" height="28" viewBox="0 0 32 28" fill="none" xmlns="http://www.w3.org/2000/svg">
<path d="M17.2059 11.186C17.2059 9.55774 16.4994 7.99613 15.2418 6.84474C13.9842 5.69335 12.2785 5.04651 10.5 5.04651C8.72149 5.04651 7.01582 5.69335 5.75823 6.84474C4.50063 7.99613 3.79412 9.55774 3.79412 11.186V19.3721H17.2059V11.186ZM19.4412 20.0546L19.8882 20.6C19.9505 20.676 19.9884 20.7664 19.9977 20.861C20.0071 20.9557 19.9874 21.0508 19.941 21.1358C19.8946 21.2208 19.8232 21.2922 19.735 21.3422C19.6467 21.3921 19.545 21.4186 19.4412 21.4186H1.55882C1.45504 21.4186 1.35331 21.3921 1.26503 21.3422C1.17675 21.2922 1.10541 21.2208 1.059 21.1358C1.01258 21.0508 0.992938 20.9557 1.00226 20.861C1.01158 20.7664 1.0495 20.676 1.11176 20.6L1.55882 20.0546V11.186C1.55882 9.01497 2.50084 6.93282 4.17763 5.39764C5.85443 3.86246 8.12865 3 10.5 3C12.8713 3 15.1456 3.86246 16.8224 5.39764C18.4992 6.93282 19.4412 9.01497 19.4412 11.186V20.0546ZM7.70588 22.4419H13.2941C13.2941 23.1203 12.9997 23.771 12.4757 24.2507C11.9517 24.7305 11.241 25 10.5 25C9.75895 25 9.04826 24.7305 8.52426 24.2507C8.00026 23.771 7.70588 23.1203 7.70588 22.4419Z" fill="#5E5F5F"/>
<g filter="url(#filter0_d_433_3138)">
<circle cx="18" cy="8" r="4" fill="#EE2835"/>
</g>
<defs>
<filter id="filter0_d_433_3138" x="4" y="0" width="28" height="28" filterUnits="userSpaceOnUse" color-interpolation-filters="sRGB">
<feFlood flood-opacity="0" result="BackgroundImageFix"/>
<feColorMatrix in="SourceAlpha" type="matrix" values="0 0 0 0 0 0 0 0 0 0 0 0 0 0 0 0 0 0 127 0" result="hardAlpha"/>
<feOffset dy="6"/>
<feGaussianBlur stdDeviation="5"/>
<feColorMatrix type="matrix" values="0 0 0 0 0.380392 0 0 0 0 0.403922 0 0 0 0 0.443137 0 0 0 0.3 0"/>
<feBlend mode="normal" in2="BackgroundImageFix" result="effect1_dropShadow_433_3138"/>
<feBlend mode="normal" in="SourceGraphic" in2="effect1_dropShadow_433_3138" result="shape"/>
</filter>
</defs>
</svg>
