<svg width="18" height="18" viewBox="0 0 18 18" fill="none" xmlns="http://www.w3.org/2000/svg">
<path d="M8.25 4.125C8.25 4.94085 8.00807 5.73838 7.55481 6.41673C7.10155 7.09508 6.45731 7.62379 5.70357 7.936C4.94982 8.24821 4.12042 8.3299 3.32025 8.17074C2.52008 8.01158 1.78508 7.61871 1.20819 7.04182C0.631295 6.46492 0.238427 5.72992 0.0792626 4.92975C-0.0799014 4.12958 0.0017873 3.30018 0.313999 2.54643C0.62621 1.79269 1.15492 1.14845 1.83327 0.69519C2.51163 0.241929 3.30915 1.8651e-06 4.125 1.8651e-06C4.6667 1.8651e-06 5.2031 0.106698 5.70357 0.313999C6.20404 0.521299 6.65877 0.825145 7.04182 1.20819C7.42486 1.59123 7.7287 2.04596 7.936 2.54643C8.1433 3.0469 8.25 3.5833 8.25 4.125V4.125ZM13.875 8.25C14.6908 8.25 15.4884 8.00807 16.1667 7.55481C16.8451 7.10155 17.3738 6.45731 17.686 5.70357C17.9982 4.94982 18.0799 4.12042 17.9207 3.32025C17.7616 2.52008 17.3687 1.78508 16.7918 1.20819C16.2149 0.631295 15.4799 0.238427 14.6797 0.0792626C13.8796 -0.0799014 13.0502 0.0017873 12.2964 0.313999C11.5427 0.62621 10.8984 1.15492 10.4452 1.83327C9.99193 2.51163 9.75 3.30915 9.75 4.125C9.75 5.21902 10.1846 6.26823 10.9582 7.04182C11.7318 7.8154 12.781 8.25 13.875 8.25V8.25ZM4.125 9.75C3.30915 9.75 2.51163 9.99193 1.83327 10.4452C1.15492 10.8984 0.62621 11.5427 0.313999 12.2964C0.0017873 13.0502 -0.0799014 13.8796 0.0792626 14.6797C0.238427 15.4799 0.631295 16.2149 1.20819 16.7918C1.78508 17.3687 2.52008 17.7616 3.32025 17.9207C4.12042 18.0799 4.94982 17.9982 5.70357 17.686C6.45731 17.3738 7.10155 16.8451 7.55481 16.1667C8.00807 15.4884 8.25 14.6908 8.25 13.875C8.25 13.3333 8.1433 12.7969 7.936 12.2964C7.7287 11.796 7.42486 11.3412 7.04182 10.9582C6.65877 10.5751 6.20404 10.2713 5.70357 10.064C5.2031 9.8567 4.6667 9.75 4.125 9.75ZM13.875 9.75C13.0592 9.75 12.2616 9.99193 11.5833 10.4452C10.9049 10.8984 10.3762 11.5427 10.064 12.2964C9.75179 13.0502 9.6701 13.8796 9.82926 14.6797C9.98842 15.4799 10.3813 16.2149 10.9582 16.7918C11.5351 17.3687 12.2701 17.7616 13.0703 17.9207C13.8704 18.0799 14.6998 17.9982 15.4536 17.686C16.2073 17.3738 16.8515 16.8451 17.3048 16.1667C17.7581 15.4884 18 14.6908 18 13.875C18 12.781 17.5654 11.7318 16.7918 10.9582C16.0182 10.1846 14.969 9.75 13.875 9.75Z" fill="#EE2835"/>
</svg>
