<svg width="20" height="20" viewBox="0 0 20 20" fill="none" xmlns="http://www.w3.org/2000/svg">
<path d="M19.7337 16.1017L16.0992 19.7386C15.9247 19.9054 15.693 19.999 15.4518 20C15.3312 19.9995 15.2117 19.9763 15.0997 19.9318C14.9343 19.8622 14.7932 19.7453 14.6942 19.5956C14.5951 19.4459 14.5426 19.2703 14.5431 19.0908V16.3631H0.913738C0.672755 16.3631 0.441642 16.2673 0.271242 16.0968C0.100841 15.9263 0.00511125 15.695 0.00511125 15.4539C0.00511125 15.2127 0.100841 14.9815 0.271242 14.811C0.441642 14.6404 0.672755 14.5447 0.913738 14.5447H14.5431V11.817C14.5426 11.6375 14.5951 11.4618 14.6942 11.3122C14.7932 11.1625 14.9343 11.0455 15.0997 10.976C15.2675 10.9104 15.4504 10.8938 15.6273 10.928C15.8042 10.9622 15.9678 11.0458 16.0992 11.1692L19.7337 14.8061C19.9043 14.9784 20 15.2113 20 15.4539C20 15.6965 19.9043 15.9293 19.7337 16.1017ZM3.90085 8.82791C4.07526 8.99474 4.30697 9.08829 4.54824 9.08931C4.66883 9.08879 4.78826 9.06566 4.90034 9.02112C5.06571 8.95156 5.2068 8.83458 5.30584 8.68491C5.40488 8.53524 5.45743 8.35959 5.45687 8.18009V5.45241H19.0863C19.3272 5.45241 19.5584 5.35662 19.7288 5.18611C19.8992 5.0156 19.9949 4.78433 19.9949 4.54319C19.9949 4.30205 19.8992 4.07079 19.7288 3.90027C19.5584 3.72976 19.3272 3.63397 19.0863 3.63397H5.45687V0.906295C5.45743 0.726791 5.40488 0.551138 5.30584 0.40147C5.2068 0.251803 5.06571 0.134819 4.90034 0.0652621C4.7325 -0.000243338 4.54956 -0.0168612 4.37269 0.0173308C4.19581 0.0515228 4.03222 0.135127 3.90085 0.258472L0.266341 3.89537C0.0957179 4.06775 0 4.30057 0 4.54319C0 4.78581 0.0957179 5.01863 0.266341 5.19101L3.90085 8.82791Z" fill="#262626"/>
</svg>
