<svg width="15" height="24" viewBox="0 0 15 24" fill="none" xmlns="http://www.w3.org/2000/svg">
<path d="M12.5 0H2.5C1.8378 0.0028204 1.20351 0.274644 0.735263 0.75627C0.267015 1.2379 0.00274205 1.89031 0 2.57143V21.4286C0.00274205 22.1097 0.267015 22.7621 0.735263 23.2437C1.20351 23.7254 1.8378 23.9972 2.5 24H12.5C13.1622 23.9972 13.7965 23.7254 14.2647 23.2437C14.733 22.7621 14.9973 22.1097 15 21.4286V2.57143C14.9973 1.89031 14.733 1.2379 14.2647 0.75627C13.7965 0.274644 13.1622 0.0028204 12.5 0ZM7.5 6C7.25277 6 7.0111 5.92459 6.80554 5.78332C6.59998 5.64204 6.43976 5.44124 6.34515 5.20631C6.25054 4.97137 6.22579 4.71286 6.27402 4.46346C6.32225 4.21405 6.4413 3.98496 6.61612 3.80515C6.79093 3.62534 7.01366 3.50289 7.25614 3.45328C7.49861 3.40367 7.74995 3.42913 7.97835 3.52644C8.20676 3.62375 8.40198 3.78855 8.53934 3.99998C8.67669 4.21142 8.75 4.46 8.75 4.71429C8.75 5.05528 8.6183 5.3823 8.38388 5.62342C8.14946 5.86454 7.83152 6 7.5 6Z" fill="#262626"/>
</svg>
