<svg width="24" height="18" viewBox="0 0 24 18" fill="none" xmlns="http://www.w3.org/2000/svg">
<path d="M22.2857 0H5.14286C4.6882 0 4.25217 0.189642 3.93067 0.527208C3.60918 0.864773 3.42857 1.32261 3.42857 1.8V15.3C3.42857 15.5387 3.33827 15.7676 3.17752 15.9364C3.01677 16.1052 2.79876 16.2 2.57143 16.2C2.3441 16.2 2.12608 16.1052 1.96534 15.9364C1.80459 15.7676 1.71429 15.5387 1.71429 15.3V4.5C1.71429 4.26131 1.62398 4.03239 1.46323 3.8636C1.30249 3.69482 1.08447 3.6 0.857143 3.6C0.629814 3.6 0.411797 3.69482 0.251051 3.8636C0.0903058 4.03239 0 4.26131 0 4.5V15.3C0 16.0161 0.270918 16.7028 0.753154 17.2092C1.23539 17.7155 1.88944 18 2.57143 18H21.4286C22.1097 17.997 22.7621 17.7116 23.2437 17.2059C23.7254 16.7002 23.9972 16.0152 24 15.3V1.8C24 1.32261 23.8194 0.864773 23.4979 0.527208C23.1764 0.189642 22.7404 0 22.2857 0V0ZM18 11.7H9.42857C9.20124 11.7 8.98323 11.6052 8.82248 11.4364C8.66173 11.2676 8.57143 11.0387 8.57143 10.8C8.57143 10.5613 8.66173 10.3324 8.82248 10.1636C8.98323 9.99482 9.20124 9.9 9.42857 9.9H18C18.2273 9.9 18.4453 9.99482 18.6061 10.1636C18.7668 10.3324 18.8571 10.5613 18.8571 10.8C18.8571 11.0387 18.7668 11.2676 18.6061 11.4364C18.4453 11.6052 18.2273 11.7 18 11.7ZM18 8.1H9.42857C9.20124 8.1 8.98323 8.00518 8.82248 7.8364C8.66173 7.66761 8.57143 7.43869 8.57143 7.2C8.57143 6.9613 8.66173 6.73239 8.82248 6.5636C8.98323 6.39482 9.20124 6.3 9.42857 6.3H18C18.2273 6.3 18.4453 6.39482 18.6061 6.5636C18.7668 6.73239 18.8571 6.9613 18.8571 7.2C18.8571 7.43869 18.7668 7.66761 18.6061 7.8364C18.4453 8.00518 18.2273 8.1 18 8.1Z" fill="#262626"/>
</svg>
